0
SECTION
2
HEADER
9
$INSUNITS
70
4
9
$ACADVER
1
AC1014
9
$HANDSEED
5
FFFF
0
ENDSEC
0
SECTION
2
TABLES
0
TABLE
2
VPORT
5
8
100
AcDbSymbolTable
0
ENDTAB
0
TABLE
2
LTYPE
5
5
100
AcDbSymbolTable
0
LTYPE
5
14
100
AcDbSymbolTableRecord
100
AcDbLinetypeTableRecord
2
BYBLOCK
70
0
0
LTYPE
5
15
100
AcDbSymbolTableRecord
100
AcDbLinetypeTableRecord
2
BYLAYER
70
0
0
ENDTAB
0
TABLE
2
LAYER
5
2
100
AcDbSymbolTable
70
2
0
LAYER
5
50
100
AcDbSymbolTableRecord
100
AcDbLayerTableRecord
2
0
70
0
6
CONTINUOUS
0
ENDTAB
0
TABLE
2
STYLE
5
3
100
AcDbSymbolTable
70
1
0
STYLE
5
11
100
AcDbSymbolTableRecord
100
AcDbTextStyleTableRecord
2
STANDARD
70
0
0
ENDTAB
0
TABLE
2
VIEW
5
6
100
AcDbSymbolTable
70
0
0
ENDTAB
0
TABLE
2
UCS
5
7
100
AcDbSymbolTable
70
0
0
ENDTAB
0
TABLE
2
APPID
5
9
100
AcDbSymbolTable
70
2
0
APPID
5
12
100
AcDbSymbolTableRecord
100
AcDbRegAppTableRecord
2
ACAD
70
0
0
ENDTAB
0
TABLE
2
DIMSTYLE
5
A
100
AcDbSymbolTable
70
1
0
ENDTAB
0
TABLE
2
BLOCK_RECORD
5
1
100
AcDbSymbolTable
70
1
0
BLOCK_RECORD
5
1F
100
AcDbSymbolTableRecord
100
AcDbBlockTableRecord
2
*MODEL_SPACE
0
BLOCK_RECORD
5
1B
100
AcDbSymbolTableRecord
100
AcDbBlockTableRecord
2
*PAPER_SPACE
0
ENDTAB
0
ENDSEC
0
SECTION
2
BLOCKS
0
BLOCK
5
20
100
AcDbEntity
100
AcDbBlockBegin
2
*MODEL_SPACE
0
ENDBLK
5
21
100
AcDbEntity
100
AcDbBlockEnd
0
BLOCK
5
1C
100
AcDbEntity
100
AcDbBlockBegin
2
*PAPER_SPACE
0
ENDBLK
5
1D
100
AcDbEntity
100
AcDbBlockEnd
0
ENDSEC
0
SECTION
2
ENTITIES
0
LWPOLYLINE
5
100
100
AcDbEntity
8
0
100
AcDbPolyline
90
8
70
1
43
0.0
10
181.75059826719703
20
82.285073388477542
42
-0.41421356237321988
10
181.25059826719703
20
81.785073388477542
10
168.25159826719704
20
81.785073388477542
42
-0.41421356237310542
10
167.75159826719715
20
82.285073388477542
10
167.7515982671971
20
95.284373388477462
42
-0.41421356237314705
10
168.2515982671971
20
95.784373388477405
10
181.25059826719701
20
95.784373388477491
42
-0.41421356237314705
10
181.75059826719703
20
95.284373388477462
0
LWPOLYLINE
5
101
100
AcDbEntity
8
0
100
AcDbPolyline
90
8
70
1
43
0.0
10
58.224777702014102
20
19.084373388477736
10
58.224777702014102
20
6.0849133884777915
42
-0.41421356237309825
10
57.724777702014109
20
5.584913388477788
10
42.043598267197495
20
5.5849133884777968
42
-0.4142135623730937
10
41.543598267197495
20
6.0849133884777924
10
41.543598267197495
20
19.084373388477744
42
-0.41421356237307161
10
42.043598267197495
20
19.584373388477736
10
57.724777702014109
20
19.584373388477744
42
-0.41421356237308982
0
LWPOLYLINE
5
102
100
AcDbEntity
8
0
100
AcDbPolyline
90
8
70
1
43
0.0
10
81.536748513651986
20
5.5849133884778004
10
65.857598267197432
20
5.5849133884777977
42
-0.41421356237307877
10
65.357598267197432
20
6.0849133884777862
10
65.357598267197432
20
19.084373388477744
42
-0.41421356237307161
10
65.857598267197432
20
19.584373388477736
10
81.536748513651986
20
19.584373388477744
42
-0.41421356237309503
10
82.036748513652
20
19.084373388477736
10
82.036748513652
20
6.0849133884777924
42
-0.41421356237310608
0
LWPOLYLINE
5
103
100
AcDbEntity
8
0
100
AcDbPolyline
90
8
70
1
43
0.0
10
96.025598267197267
20
63.235073388477623
42
-0.41421356237308982
10
95.525598267197282
20
62.735073388477609
10
82.526298267197404
20
62.735073388477609
42
-0.41421356237313145
10
82.026298267197362
20
63.235073388477623
10
82.026298267197362
20
76.23437338847755
42
-0.41421356237302737
10
82.526298267197404
20
76.73437338847755
10
95.525598267197296
20
76.734373388477593
42
-0.41421356237300661
10
96.025598267197267
20
76.23437338847755
0
LWPOLYLINE
5
104
100
AcDbEntity
8
0
100
AcDbPolyline
90
10
70
1
43
0.0
10
296.05059826719668
20
95.784373388477476
10
263.00159826719675
20
95.784373388477476
10
263.00159826719675
20
81.785073388477542
10
263.00159826719675
20
79.258505195722051
10
273.00000406801701
20
79.258505195722051
10
273.00000406801701
20
81.785073388477542
10
285.93406937065799
20
81.785073388477542
10
285.93406937065799
20
79.258505195722051
10
296.05059826719668
20
79.258505195722051
10
296.05059826719668
20
81.785073388477542
0
LWPOLYLINE
5
105
100
AcDbEntity
8
0
100
AcDbPolyline
90
8
70
1
43
0.0
10
110.59989826719729
20
95.284373388477462
42
-0.41421356237307422
10
111.09989826719729
20
95.784373388477476
10
124.10059826719724
20
95.784373388477476
42
-0.4142135623730222
10
124.6005982671973
20
95.284373388477462
10
124.6005982671973
20
82.285073388477542
42
-0.4142135623730534
10
124.10059826719724
20
81.785073388477542
10
111.09989826719729
20
81.785073388477542
42
-0.41421356237316787
10
110.59989826719729
20
82.285073388477542
0
LWPOLYLINE
5
106
100
AcDbEntity
8
0
100
AcDbPolyline
90
8
70
1
43
0.0
10
219.35059826719694
20
95.784373388477476
42
-0.41421356237321988
10
219.85059826719692
20
95.284373388477434
10
219.85059826719692
20
82.285073388477542
42
-0.41421356237293894
10
219.35059826719694
20
81.785073388477542
10
206.35159826719701
20
81.785073388477585
42
-0.4142135623730846
10
205.85159826719689
20
82.285073388477542
10
205.85159826719689
20
95.284373388477434
42
-0.4142135623730846
10
206.35159826719698
20
95.784373388477476
0
LWPOLYLINE
5
107
100
AcDbEntity
8
0
100
AcDbPolyline
90
8
70
1
43
0.0
10
57.925598267197444
20
76.23437338847755
10
57.925598267197451
20
63.235073388477623
42
-0.41421356237305862
10
57.425598267197444
20
62.735073388477609
10
44.426298267197495
20
62.735073388477609
42
-0.41421356237307422
10
43.926298267197495
20
63.235073388477623
10
43.926298267197474
20
76.23437338847755
42
-0.414213562373069
10
44.426298267197481
20
76.73437338847755
10
57.425598267197444
20
76.73437338847755
42
-0.41421356237309503
0
LWPOLYLINE
5
108
100
AcDbEntity
8
0
100
AcDbPolyline
90
10
70
1
43
0.0
10
293.66959826719682
20
19.084373388477726
10
293.6695982671967
20
6.0849133884777773
42
-0.41421356237309764
10
293.16959826719659
20
5.5849133884778004
10
279.66859826719673
20
5.5849133884777764
10
277.26706033306152
20
5.5849133884777782
42
-0.41421356237317375
10
276.76706033306152
20
6.0849133884777773
10
276.76706033306152
20
19.084373388477726
42
-0.41421356237317308
10
277.26706033306152
20
19.584373388477726
10
279.66859826719673
20
19.584373388477726
10
293.16959826719659
20
19.584373388477687
42
-0.41421356237302481
0
LWPOLYLINE
5
109
100
AcDbEntity
8
0
100
AcDbPolyline
90
8
70
1
43
0.0
10
29.350798267197554
20
82.2850733884775
42
-0.41421356237305079
10
28.850798267197533
20
81.785073388477542
10
15.85124826719758
20
81.785073388477542
42
-0.41421356237308854
10
15.351248267197573
20
82.285073388477542
10
15.351248267197589
20
95.284373388477462
42
-0.41421356237306511
10
15.85124826719758
20
95.784373388477476
10
28.850798267197533
20
95.784373388477476
42
-0.4142135623730534
10
29.35079826719754
20
95.284373388477462
0
LINE
5
110
100
AcDbEntity
8
0
100
AcDbLine
10
79.356898267197366
20
5.5849133884777844
30
0
11
65.357598267197432
21
5.584913388477788
31
0
0
LWPOLYLINE
5
111
100
AcDbEntity
8
0
100
AcDbPolyline
90
8
70
1
43
0.0
10
33.613298267197521
20
62.735073388477609
10
20.613758267197568
20
62.735073388477609
42
-0.41421356237308204
10
20.113758267197564
20
63.23507338847763
10
20.113758267197568
20
76.23437338847755
42
-0.41421356237309503
10
20.613758267197568
20
76.73437338847755
10
33.613298267197521
20
76.73437338847755
42
-0.41421356237310281
10
34.113298267197514
20
76.23437338847755
10
34.11329826719755
20
63.235073388477581
42
-0.41421356237305601
0
LWPOLYLINE
5
112
100
AcDbEntity
8
0
100
AcDbPolyline
90
8
70
1
43
0.0
10
177.7765982671971
20
76.73437338847755
10
190.77559826719693
20
76.734373388477565
42
-0.41421356237313667
10
191.27559826719707
20
76.23437338847755
10
191.27559826719707
20
63.235073388477623
42
-0.41421356237311585
10
190.77559826719693
20
62.735073388477652
10
177.7765982671971
20
62.735073388477652
42
-0.41421356237309503
10
177.27659826719704
20
63.235073388477623
10
177.27659826719707
20
76.23437338847755
42
-0.41421356237304818
0
LWPOLYLINE
5
113
100
AcDbEntity
8
0
100
AcDbPolyline
90
8
70
1
43
0.0
10
100.78809826719731
20
57.18437338847761
10
100.78809826719731
20
44.185073388477669
42
-0.41421356237311585
10
100.2880982671973
20
43.685073388477697
10
87.288798267197336
20
43.685073388477669
42
-0.41421356237308982
10
86.78879826719735
20
44.185073388477669
10
86.78879826719735
20
57.18437338847761
42
-0.41421356237308982
10
87.288798267197322
20
57.68437338847761
10
100.2880982671973
20
57.684373388477603
42
-0.4142135623730846
0
LWPOLYLINE
5
114
100
AcDbEntity
8
0
100
AcDbPolyline
90
8
70
1
43
0.0
10
47.900598267197473
20
81.785073388477542
10
34.901298267197518
20
81.785073388477542
42
-0.41421356237310281
10
34.401298267197518
20
82.285073388477542
10
34.401298267197532
20
95.284373388477491
42
-0.41421356237305079
10
34.901298267197518
20
95.784373388477476
10
47.900598267197473
20
95.784373388477476
42
-0.41421356237299095
10
48.400598267197459
20
95.284373388477405
10
48.400598267197452
20
82.285073388477485
42
-0.4142135623730378
0
LWPOLYLINE
5
115
100
AcDbEntity
8
0
100
AcDbPolyline
90
8
70
1
43
0.0
10
277.78859826719673
20
62.735073388477566
42
-0.41421356237307944
10
277.28859826719668
20
63.235073388477581
10
277.28859826719668
20
76.234373388477522
42
-0.41421356237310025
10
277.78859826719673
20
76.734373388477493
10
290.78859826719668
20
76.734373388477508
42
-0.41421356237324591
10
291.28859826719668
20
76.234373388477522
10
291.28859826719668
20
63.235073388477581
42
-0.41421356237317308
10
290.78859826719673
20
62.735073388477574
0
LWPOLYLINE
5
116
100
AcDbEntity
8
0
100
AcDbPolyline
90
8
70
1
43
0.0
10
76.97559826719737
20
63.235073388477623
42
-0.41421356237313667
10
76.47559826719737
20
62.735073388477609
10
63.476298267197436
20
62.735073388477609
42
-0.41421356237305862
10
62.976298267197429
20
63.235073388477623
10
62.976298267197436
20
76.23437338847755
42
-0.41421356237309503
10
63.476298267197436
20
76.73437338847755
10
76.47559826719737
20
76.73437338847755
42
-0.4142135623730846
10
76.97559826719737
20
76.23437338847755
0
LWPOLYLINE
5
117
100
AcDbEntity
8
0
100
AcDbPolyline
90
5
70
1
43
0.0
10
102.00000151991844
20
22.500000335276127
10
90.000001341104507
20
22.500000335276127
10
90.000001341104507
20
5.5849133884777844
10
102.00000151991844
20
5.5849133884777835
10
102.00000151991844
20
19.584373388477736
0
LWPOLYLINE
5
118
100
AcDbEntity
8
0
100
AcDbPolyline
90
8
70
1
43
0.0
10
62.688098267197425
20
44.185073388477669
42
-0.41421356237309503
10
62.188098267197425
20
43.685073388477669
10
49.188798267197456
20
43.685073388477669
42
-0.41421356237307422
10
48.688798267197491
20
44.185073388477669
10
48.68879826719747
20
57.18437338847761
42
-0.41421356237311063
10
49.188798267197456
20
57.68437338847761
10
62.188098267197425
20
57.68437338847761
42
-0.41421356237309503
10
62.688098267197425
20
57.18437338847761
0
ARC
5
119
100
AcDbEntity
8
0
100
AcDbCircle
10
245.54459826719693
20
6.0849133884777542
30
0
40
0.49999999999997047
210
0
220
0
230
1
100
AcDbArc
50
-90.000000000006523
51
0
0
LWPOLYLINE
5
120
100
AcDbEntity
8
0
100
AcDbPolyline
90
10
70
1
43
0.0
10
35.994498267197514
20
57.684373388477624
42
-0.41421356237310025
10
36.494498267197535
20
57.184373388477603
10
36.494498267197535
20
44.185073388477676
42
-0.41421356237307683
10
35.994498267197514
20
43.685073388477669
10
22.493628267197568
20
43.685073388477669
10
18.500000268220901
20
43.685073388477669
42
-0.41421356237307161
10
18.000000268220905
20
44.185073388477669
10
18.000000268220909
20
57.18437338847761
42
-0.41421356237308071
10
18.500000268220901
20
57.68437338847761
10
22.493628267197568
20
57.68437338847761
0
LINE
5
121
100
AcDbEntity
8
0
100
AcDbLine
10
232.04359826719696
20
19.584373388477736
30
0
11
245.54459826719682
21
19.584373388477726
31
0
0
LWPOLYLINE
5
122
100
AcDbEntity
8
0
100
AcDbPolyline
90
8
70
1
43
0.0
10
224.11359826719689
20
24.6348733884777
10
211.11359826719706
20
24.634873388477661
42
-0.4142135623731783
10
210.61359826719695
20
25.134873388477704
10
210.61359826719695
20
38.134273388477652
42
-0.41421356237291812
10
211.11359826719706
20
38.634273388477681
10
224.11359826719689
20
38.634273388477652
42
-0.41421356237307161
10
224.61359826719695
20
38.134273388477652
10
224.61359826719695
20
25.134873388477704
42
-0.41421356237307422
0
LWPOLYLINE
5
123
100
AcDbEntity
8
0
100
AcDbPolyline
90
8
70
1
43
0.0
10
215.87659826719693
20
62.735073388477574
42
-0.41421356237313667
10
215.37659826719693
20
63.235073388477581
10
215.37659826719693
20
76.234373388477522
42
-0.41421356237312101
10
215.87659826719693
20
76.734373388477493
10
228.87559826719695
20
76.734373388477508
42
-0.41421356237310025
10
229.37559826719692
20
76.234373388477522
10
229.37559826719692
20
63.235073388477581
42
-0.41421356237320428
10
228.87559826719695
20
62.735073388477574
0
LWPOLYLINE
5
124
100
AcDbEntity
8
0
100
AcDbPolyline
90
8
70
1
43
0.0
10
138.88859826719718
20
57.18437338847761
10
138.88859826719718
20
44.185073388477647
42
-0.41421356237308982
10
138.38859826719724
20
43.685073388477647
10
125.38859826719732
20
43.685073388477647
42
-0.41421356237305862
10
124.88859826719721
20
44.185073388477647
10
124.88859826719721
20
57.18437338847761
42
-0.41421356237310542
10
125.38859826719731
20
57.68437338847761
10
138.38859826719727
20
57.68437338847761
42
-0.41421356237307944
0
LWPOLYLINE
5
125
100
AcDbEntity
8
0
100
AcDbPolyline
90
8
70
1
43
0.0
10
77.763798267197359
20
24.634873388477715
42
-0.41421356237307944
10
77.263798267197373
20
25.134873388477711
10
77.263798267197373
20
38.134273388477673
42
-0.41421356237306123
10
77.763798267197359
20
38.634273388477695
10
90.763098267197307
20
38.634273388477652
42
-0.41421356237305079
10
91.263098267197321
20
38.134273388477652
10
91.263098267197321
20
25.134873388477711
42
-0.41421356237306384
10
90.763098267197307
20
24.634873388477718
0
LWPOLYLINE
5
126
100
AcDbEntity
8
0
100
AcDbPolyline
90
8
70
1
43
0.0
10
139.17659826719716
20
76.23437338847755
42
-0.41421356237308982
10
139.67659826719716
20
76.73437338847755
10
152.67559826719713
20
76.734373388477593
42
-0.41421356237302737
10
153.17559826719713
20
76.23437338847755
10
153.17559826719713
20
63.235073388477623
42
-0.41421356237301699
10
152.67559826719713
20
62.735073388477609
10
139.67659826719716
20
62.735073388477602
42
-0.41421356237314705
10
139.17659826719716
20
63.235073388477623
0
LWPOLYLINE
5
127
100
AcDbEntity
8
0
100
AcDbPolyline
90
8
70
1
43
0.0
10
53.951298267197458
20
81.785073388477542
42
-0.41421356237311585
10
53.451298267197473
20
82.285073388477542
10
53.451298267197451
20
95.284373388477491
42
-0.41421356237298057
10
53.951298267197458
20
95.784373388477476
10
66.950598267197407
20
95.784373388477462
42
-0.41421356237290774
10
67.450598267197421
20
95.284373388477491
10
67.450598267197449
20
82.285073388477514
42
-0.41421356237304818
10
66.950598267197407
20
81.785073388477542
0
LWPOLYLINE
5
128
100
AcDbEntity
8
0
100
AcDbPolyline
90
10
70
1
43
0.0
10
18.232508267197574
20
5.5849133884777871
42
-0.41421356237309176
10
17.732508267197574
20
6.0849133884777924
10
17.732508267197574
20
19.084373388477744
42
-0.41421356237308593
10
18.232508267197574
20
19.584373388477744
10
31.731998267197532
20
19.584373388477744
10
34.500000521540642
20
19.584373388477744
42
-0.41421356237309503
10
35.000000521540642
20
19.084373388477744
10
35.000000521540642
20
6.0849133884777924
42
-0.41421356237309309
10
34.500000521540642
20
5.5849133884777888
10
31.731998267197532
20
5.584913388477788
0
ARC
5
129
100
AcDbEntity
8
0
100
AcDbCircle
10
229.50000341236588
20
6.0849133884777604
30
0
40
0.49999999999997158
210
0
220
0
230
1
100
AcDbArc
50
180
51
270.00000000000324
0
LINE
5
130
100
AcDbEntity
8
0
100
AcDbLine
10
229.00000341236591
20
19.084373388477736
30
0
11
229.00000341236591
21
6.0849133884777604
31
0
0
LWPOLYLINE
5
131
100
AcDbEntity
8
0
100
AcDbPolyline
90
8
70
1
43
0.0
10
239.18859826719685
20
44.185073388477647
10
239.18859826719682
20
57.18437338847761
42
-0.41421356237304818
10
239.68859826719691
20
57.684373388477546
10
252.6885982671968
20
57.68437338847761
42
-0.41421356237313145
10
253.18859826719682
20
57.18437338847761
10
253.18859826719682
20
44.185073388477647
42
-0.41421356237313667
10
252.6885982671968
20
43.685073388477647
10
239.68859826719691
20
43.68507338847764
42
-0.41421356237307422
0
LWPOLYLINE
5
132
100
AcDbEntity
8
0
100
AcDbPolyline
90
9
70
1
43
0.0
10
136.79359826719721
20
19.584373388477736
10
136.5000020340085
20
19.584373388477736
10
132.7517600315503
20
19.584373388477736
10
132.7517600315503
20
5.5849133884777844
10
136.79359826719721
20
5.5849133884777844
10
150.79459826719713
20
5.5849133884777844
10
166.81099662749986
20
5.5849133884777835
10
166.81099662749986
20
19.584373388477736
10
150.79459826719713
20
19.584373388477736
0
LWPOLYLINE
5
133
100
AcDbEntity
8
0
100
AcDbPolyline
90
8
70
1
43
0.0
10
220.63859826719693
20
43.685073388477605
42
-0.41421356237301177
10
220.13859826719695
20
44.185073388477647
10
220.13859826719695
20
57.184373388477638
42
-0.41421356237319906
10
220.63859826719693
20
57.684373388477653
10
233.63859826719693
20
57.68437338847761
42
-0.41421356237313145
10
234.13859826719693
20
57.18437338847761
10
234.13859826719693
20
44.185073388477647
42
-0.41421356237313667
10
233.63859826719693
20
43.685073388477647
0
LINE
5
134
100
AcDbEntity
8
0
100
AcDbLine
10
246.04459826719682
20
19.584373388477726
30
0
11
229.50000341236591
21
19.584373388477726
31
0
0
LWPOLYLINE
5
135
100
AcDbEntity
8
0
100
AcDbPolyline
90
8
70
1
43
0.0
10
144.43859826719714
20
43.68507338847764
42
-0.41421356237307422
10
143.93859826719716
20
44.185073388477647
10
143.93859826719714
20
57.184373388477638
42
-0.41421356237306384
10
144.43859826719714
20
57.684373388477624
10
157.43859826719714
20
57.684373388477603
42
-0.4142135623730846
10
157.93859826719714
20
57.18437338847761
10
157.93859826719714
20
44.185073388477647
42
-0.41421356237312101
10
157.43859826719714
20
43.685073388477669
0
LWPOLYLINE
5
136
100
AcDbEntity
8
0
100
AcDbPolyline
90
8
70
1
43
0.0
10
234.42659826719679
20
63.235073388477581
10
234.42659826719679
20
76.234373388477522
42
-0.4142135623731939
10
234.92659826719688
20
76.734373388477493
10
247.92559826719696
20
76.734373388477493
42
-0.41421356237309503
10
248.42559826719685
20
76.234373388477522
10
248.4255982671969
20
63.235073388477581
42
-0.41421356237326673
10
247.92559826719682
20
62.735073388477574
10
234.92659826719688
20
62.735073388477616
42
-0.4142135623731939
0
LWPOLYLINE
5
137
100
AcDbEntity
8
0
100
AcDbPolyline
90
8
70
1
43
0.0
10
192.06359826719699
20
38.634273388477695
10
205.06359826719688
20
38.634273388477695
42
-0.41421356237303258
10
205.56359826719702
20
38.134273388477652
10
205.56359826719699
20
25.134873388477704
42
-0.41421356237294416
10
205.06359826719688
20
24.6348733884777
10
192.06359826719699
20
24.634873388477686
42
-0.41421356237297535
10
191.56359826719697
20
25.134873388477704
10
191.56359826719697
20
38.134273388477652
42
-0.41421356237286089
0
LWPOLYLINE
5
138
100
AcDbEntity
8
0
100
AcDbPolyline
90
8
70
1
43
0.0
10
134.41359826719722
20
25.134873388477704
10
134.41359826719722
20
38.134273388477673
42
-0.41421356237309243
10
134.91359826719724
20
38.634273388477681
10
147.91359826719716
20
38.634273388477652
42
-0.41421356237310025
10
148.41359826719719
20
38.134273388477652
10
148.41359826719719
20
25.134873388477704
42
-0.41421356237310281
10
147.91359826719716
20
24.6348733884777
10
134.91359826719724
20
24.634873388477718
42
-0.41421356237310281
0
LWPOLYLINE
5
139
100
AcDbEntity
8
0
100
AcDbPolyline
90
8
70
1
43
0.0
10
195.53859826719705
20
43.685073388477647
10
182.53859826719705
20
43.68507338847769
42
-0.41421356237308982
10
182.03859826719707
20
44.185073388477647
10
182.03859826719707
20
57.18437338847761
42
-0.4142135623730534
10
182.53859826719705
20
57.684373388477653
10
195.53859826719705
20
57.684373388477624
42
-0.41421356237307944
10
196.0385982671971
20
57.18437338847761
10
196.0385982671971
20
44.185073388477647
42
-0.4142135623731939
0
LWPOLYLINE
5
140
100
AcDbEntity
8
0
100
AcDbPolyline
90
8
70
1
43
0.0
10
201.08859826719706
20
44.185073388477647
10
201.08859826719706
20
57.184373388477638
42
-0.41421356237299617
10
201.58859826719697
20
57.68437338847761
10
214.58859826719689
20
57.684373388477582
42
-0.41421356237315748
10
215.08859826719689
20
57.18437338847761
10
215.08859826719689
20
44.185073388477647
42
-0.41421356237290774
10
214.58859826719689
20
43.685073388477669
10
201.58859826719697
20
43.685073388477697
42
-0.4142135623730222
0
LINE
5
141
100
AcDbEntity
8
0
100
AcDbLine
10
255.85759826719681
20
19.584373388477726
30
0
11
269.85659826719683
21
19.584373388477726
31
0
0
LWPOLYLINE
5
142
100
AcDbEntity
8
0
100
AcDbPolyline
90
8
70
1
43
0.0
10
158.72659826719712
20
76.734373388477565
10
171.72559826719706
20
76.734373388477508
42
-0.41421356237312623
10
172.22559826719709
20
76.23437338847755
10
172.22559826719709
20
63.235073388477623
42
-0.41421356237307944
10
171.72559826719706
20
62.735073388477609
10
158.72659826719712
20
62.735073388477637
42
-0.41421356237297013
10
158.22659826719712
20
63.235073388477623
10
158.22659826719715
20
76.23437338847755
42
-0.41421356237290774
0
LWPOLYLINE
5
143
100
AcDbEntity
8
0
100
AcDbPolyline
90
8
70
1
43
0.0
10
153.46359826719714
20
25.134873388477704
10
153.46359826719714
20
38.134273388477673
42
-0.414213562373069
10
153.96359826719714
20
38.634273388477673
10
166.96359826719714
20
38.634273388477652
42
-0.41421356237308982
10
167.46359826719709
20
38.134273388477652
10
167.46359826719711
20
25.134873388477704
42
-0.41421356237301177
10
166.96359826719714
20
24.634873388477718
10
153.96359826719714
20
24.6348733884777
42
-0.41421356237305079
0
LWPOLYLINE
5
144
100
AcDbEntity
8
0
100
AcDbPolyline
90
8
70
1
43
0.0
10
229.66359826719696
20
25.134873388477704
10
229.66359826719699
20
38.134273388477673
42
-0.41421356237302737
10
230.16359826719693
20
38.634273388477716
10
243.16359826719693
20
38.634273388477666
42
-0.41421356237314183
10
243.66359826719696
20
38.134273388477652
10
243.66359826719687
20
25.134873388477704
42
-0.41421356237306639
10
243.16359826719693
20
24.634873388477736
10
230.16359826719693
20
24.634873388477651
42
-0.41421356237301699
0
LWPOLYLINE
5
145
100
AcDbEntity
8
0
100
AcDbPolyline
90
8
70
1
43
0.0
10
186.51359826719704
20
25.134873388477704
42
-0.41421356237314183
10
186.01359826719704
20
24.6348733884777
10
173.01359826719707
20
24.634873388477754
42
-0.41421356237318607
10
172.51359826719707
20
25.134873388477704
10
172.51359826719707
20
38.134273388477673
42
-0.41421356237316787
10
173.01359826719707
20
38.634273388477652
10
186.01359826719704
20
38.634273388477652
42
-0.41421356237313406
10
186.51359826719704
20
38.134273388477652
0
LINE
5
146
100
AcDbEntity
8
0
100
AcDbLine
10
246.04459826719693
20
19.084373388477754
30
0
11
246.0445982671969
21
6.0849133884777542
31
0
0
LINE
5
147
100
AcDbEntity
8
0
100
AcDbLine
10
269.85659826719683
20
5.5849133884777764
30
0
11
255.85759826719681
21
5.5849133884777764
31
0
0
ARC
5
148
100
AcDbEntity
8
0
100
AcDbCircle
10
229.50000341236588
20
19.084373388477754
30
0
40
0.49999999999997158
210
0
220
-0
230
1
100
AcDbArc
50
89.999999999996746
51
180
0
LWPOLYLINE
5
149
100
AcDbEntity
8
0
100
AcDbPolyline
90
8
70
1
43
0.0
10
176.48859826719706
20
57.684373388477603
42
-0.41421356237291812
10
176.98859826719709
20
57.18437338847761
10
176.98859826719712
20
44.185073388477647
42
-0.414213562373069
10
176.48859826719706
20
43.685073388477647
10
163.48859826719715
20
43.68507338847764
42
-0.41421356237307422
10
162.98859826719709
20
44.185073388477647
10
162.98859826719709
20
57.18437338847761
42
-0.414213562373069
10
163.48859826719715
20
57.68437338847761
0
LINE
5
150
100
AcDbEntity
8
0
100
AcDbLine
10
246.04459826719682
20
5.5849133884777764
30
0
11
232.04359826719696
21
5.5849133884777791
31
0
0
LWPOLYLINE
5
151
100
AcDbEntity
8
0
100
AcDbPolyline
90
8
70
1
43
0.0
10
81.73809826719733
20
44.185073388477669
42
-0.4142135623730846
10
81.238098267197344
20
43.685073388477669
10
68.23879826719741
20
43.685073388477669
42
-0.4142135623730846
10
67.73879826719741
20
44.185073388477669
10
67.73879826719741
20
57.184373388477638
42
-0.41421356237311063
10
68.23879826719741
20
57.684373388477624
10
81.238098267197358
20
57.684373388477646
42
-0.41421356237300661
10
81.73809826719733
20
57.18437338847761
0
LWPOLYLINE
5
152
100
AcDbEntity
8
0
100
AcDbPolyline
90
18
70
1
43
0.0
10
222.23159826719694
20
6.0849133884777622
42
-0.41421356237319779
10
221.73159826719694
20
5.5849133884777924
10
216.95210162159242
20
5.5849133884777791
10
209.00000311434269
20
5.5849133884777791
10
208.23259826719692
20
5.5849133884777791
10
198.00000295042992
20
5.5849133884777844
10
189.9521012192611
20
5.5849133884777791
10
189.9521012192611
20
19.584373388477736
10
189.9521012192611
20
23.000000342726711
10
198.00000295042992
20
23.000000342726711
10
198.00000295042992
20
19.584373388477736
10
208.23259826719692
20
19.584373388477736
10
209.00000311434269
20
19.584373388477736
10
209.00000311434269
20
23.000000342726711
10
216.95210162159242
20
23.000000342726711
10
216.95210162159242
20
19.584373388477736
10
221.73159826719694
20
19.584373388477736
42
-0.41421356237316265
10
222.23159826719694
20
19.084373388477754
0
LINE
5
153
100
AcDbEntity
8
0
100
AcDbLine
10
245.54459826719687
20
5.5849133884777835
30
0
11
229.50000341236591
21
5.5849133884777888
31
0
0
LINE
5
154
100
AcDbEntity
8
0
100
AcDbLine
10
55.544398267197465
20
5.584913388477788
30
0
11
42.043598267197495
21
5.5849133884777924
31
0
0
LWPOLYLINE
5
155
100
AcDbEntity
8
0
100
AcDbPolyline
90
8
70
1
43
0.0
10
143.65059826719713
20
95.284373388477462
10
143.65059826719713
20
82.285073388477542
42
-0.4142135623730222
10
143.15059826719713
20
81.785073388477542
10
130.14959826719723
20
81.785073388477542
42
-0.41421356237316787
10
129.64959826719723
20
82.285073388477542
10
129.64959826719723
20
95.284373388477462
42
-0.41421356237307422
10
130.14959826719723
20
95.784373388477476
10
143.15059826719713
20
95.784373388477476
42
-0.4142135623730534
0
LWPOLYLINE
5
156
100
AcDbEntity
8
0
100
AcDbPolyline
90
8
70
1
43
0.0
10
133.62559826719718
20
62.735073388477609
10
120.62659826719724
20
62.735073388477602
42
-0.41421356237314705
10
120.12659826719724
20
63.235073388477623
10
120.12659826719724
20
76.23437338847755
42
-0.41421356237308982
10
120.62659826719724
20
76.73437338847755
10
133.62559826719718
20
76.734373388477536
42
-0.4142135623730846
10
134.12559826719718
20
76.23437338847755
10
134.12559826719718
20
63.235073388477623
42
-0.41421356237307944
0
LWPOLYLINE
5
157
100
AcDbEntity
8
0
100
AcDbPolyline
90
8
70
1
43
0.0
10
115.86359826719729
20
24.634873388477718
42
-0.41421356237305601
10
115.36359826719726
20
25.134873388477711
10
115.36359826719726
20
38.134273388477652
42
-0.41421356237310281
10
115.86359826719729
20
38.634273388477652
10
128.86359826719723
20
38.634273388477659
42
-0.4142135623730846
10
129.36359826719723
20
38.134273388477652
10
129.36359826719723
20
25.134873388477704
42
-0.41421356237310542
10
128.86359826719723
20
24.6348733884777
0
LWPOLYLINE
5
158
100
AcDbEntity
8
0
100
AcDbPolyline
90
22
70
1
43
0.0
10
26.500000394880772
20
41.443523070017932
10
26.500000394880772
20
38.634273388477681
10
27.257498267197558
20
38.634273388477681
10
41.256998267197524
20
38.634273388477652
10
42.000000625848777
20
38.634273388477652
10
42.000000625848777
20
41.443523070017932
10
50.00000074505806
20
41.443523070017932
10
50.00000074505806
20
38.634273388477681
10
53.348861930444009
20
38.634273388477681
42
-0.41421356237307944
10
53.848861930443981
20
38.134273388477681
10
53.848861930443981
20
25.134873388477711
42
-0.41421356237311063
10
53.348861930444009
20
24.634873388477718
10
50.00000074505806
20
24.634873388477718
10
50.00000074505806
20
21.510624337354006
10
42.000000625848777
20
21.510624337354006
10
42.000000625848777
20
24.634873388477718
10
41.256998267197524
20
24.634873388477718
10
27.257498267197558
20
24.634873388477718
10
26.500000394880772
20
24.634873388477718
10
26.500000394880772
20
21.510624337354006
10
18.000000268220898
20
21.510624337354006
10
18.000000268220898
20
41.443523070017932
0
LINE
5
159
100
AcDbEntity
8
0
100
AcDbLine
10
42.043598267197495
20
19.584373388477736
30
0
11
55.544398267197465
21
19.584373388477744
31
0
0
ARC
5
160
100
AcDbEntity
8
0
100
AcDbCircle
10
245.54459826719693
20
19.084373388477754
30
0
40
0.49999999999997158
210
0
220
0
230
1
100
AcDbArc
50
0
51
90.000000000013031
0
LWPOLYLINE
5
161
100
AcDbEntity
8
0
100
AcDbPolyline
90
8
70
1
43
0.0
10
58.713798267197426
20
24.634873388477718
42
-0.41421356237309243
10
58.213798267197426
20
25.134873388477711
10
58.213798267197433
20
38.134273388477673
42
-0.41421356237309243
10
58.713798267197426
20
38.634273388477681
10
71.713098267197424
20
38.634273388477652
42
-0.41421356237311324
10
72.213098267197395
20
38.134273388477652
10
72.213098267197395
20
25.134873388477715
42
-0.41421356237314705
10
71.71309826719741
20
24.634873388477736
0
LWPOLYLINE
5
162
100
AcDbEntity
8
0
100
AcDbPolyline
90
8
70
1
43
0.0
10
238.90059826719695
20
82.285073388477542
42
-0.4142135623730222
10
238.40059826719684
20
81.785073388477542
10
225.40159826719699
20
81.785073388477571
42
-0.41421356237309503
10
224.90159826719693
20
82.285073388477542
10
224.90159826719704
20
95.284373388477434
42
-0.41421356237314705
10
225.40159826719699
20
95.784373388477476
10
238.40059826719684
20
95.784373388477476
42
-0.41421356237311585
10
238.90059826719693
20
95.284373388477434
0
LWPOLYLINE
5
163
100
AcDbEntity
8
0
100
AcDbPolyline
90
16
70
1
43
0.0
10
270.14359826719681
20
43.685073388477647
10
284.14459826719667
20
43.685073388477647
10
285.00086432922205
20
43.684799081348011
10
285.00000424683094
20
41.000000610947644
10
293.00000436604017
20
41.000000610947616
10
293.00000436604029
20
59.036602636879323
10
285.00578232066761
20
59.036602636879323
10
285.00534904206569
20
57.684097644658152
10
284.14459826719667
20
57.68437338847761
10
270.14359826719681
20
57.68437338847761
10
269.63133689822087
20
57.68437338847761
10
269.63133689822087
20
59.036602636879323
10
261.37396211890166
20
59.036602636879323
10
261.37396211890166
20
41.000000610947616
10
269.63133689822081
20
41.000000610947609
10
269.63133689822081
20
43.685073388477647
0
LWPOLYLINE
5
164
100
AcDbEntity
8
0
100
AcDbPolyline
90
52
70
1
43
0.0
10
269.75659652341596
20
-1.9410336115221747
10
221.75659652341602
20
-1.9410336115221734
42
-0.41421356237301959
10
220.75659652341599
20
-0.94103361152220344
10
220.75659652341599
20
3.0589663884777885
10
180.70159826719674
20
3.0589663884776863
10
180.70159826719674
20
-0.94103361152235265
42
-0.41421356237308521
10
179.70159826719666
20
-1.9410336115223328
10
131.70159826719666
20
-1.9410336115224369
42
-0.41421356237308982
10
130.70159826719669
20
-0.94103361152244047
10
130.70159826719669
20
3.0589663884775602
10
90.756596523416022
20
3.0589663884774576
10
90.75659652341605
20
-0.94103361152220266
42
-0.41421356237307339
10
89.756596523416036
20
-1.9410336115222093
10
41.756596523416015
20
-1.9410336115222027
42
-0.4142135623730957
10
40.756596523416022
20
-0.94103361152220399
10
40.756596523416022
20
3.0589663884774598
10
12.826682867197585
20
3.0589663884777973
10
12.826682867197585
20
35.68377338847759
10
9.3266828671975848
20
35.68377338847759
42
-0.41421356237309082
10
8.3266828671975794
20
36.68377338847759
10
8.3266828671975794
20
64.683773388477576
42
-0.41421356237309276
10
9.3266828671975848
20
65.683773388477576
10
12.826682867197585
20
65.683773388477576
10
12.826682867197583
20
98.308773388477491
10
40.756596523416057
20
98.308773388477434
10
40.756596523416057
20
102.30877338847748
42
-0.4142135623730846
10
41.756596523416036
20
103.30877338847749
10
89.756596523416036
20
103.30877338847749
42
-0.414213562373069
10
90.756596523416022
20
102.30877338847748
10
90.756596523416022
20
98.30877338847742
10
130.70159826719669
20
98.30877338847742
10
130.70159826719669
20
102.30877338847742
42
-0.41421356237311063
10
131.70159826719666
20
103.30877338847742
10
179.70159826719666
20
103.30877338847742
42
-0.414213562373069
10
180.70159826719674
20
102.30877338847742
10
180.70159826719674
20
98.30877338847742
10
220.75659652341599
20
98.308773388477434
10
220.75659652341599
20
102.30877338847748
42
-0.41421356237304302
10
221.75659652341605
20
103.30877338847749
10
269.75659652341596
20
103.3087733884775
42
-0.41421356237312101
10
270.75659652341596
20
102.30877338847748
10
270.75659652341596
20
98.308773388477434
10
298.57659826719669
20
98.308773388477434
10
298.57659826719669
20
65.683773388477533
10
302.07659826719669
20
65.683773388477547
42
-0.41421356237309243
10
303.07659826719669
20
64.683773388477533
10
303.07659826719674
20
36.68377338847754
42
-0.41421356237311063
10
302.07659826719669
20
35.683773388477569
10
298.57659826719669
20
35.68377338847754
10
298.57659826719669
20
3.0589663884777885
10
270.75659652341596
20
3.0589663884777929
10
270.75659652341596
20
-0.94103361152220266
42
-0.41421356237310525
0
LWPOLYLINE
5
165
100
AcDbEntity
8
0
100
AcDbPolyline
90
8
70
1
43
0.0
10
101.0762982671973
20
76.23437338847755
42
-0.41421356237308982
10
101.5762982671973
20
76.73437338847755
10
114.57559826719731
20
76.734373388477593
42
-0.41421356237303258
10
115.07559826719728
20
76.23437338847755
10
115.07559826719728
20
63.235073388477623
42
-0.41421356237305862
10
114.57559826719729
20
62.735073388477602
10
101.5762982671973
20
62.735073388477602
42
-0.41421356237314705
10
101.0762982671973
20
63.235073388477623
0
LWPOLYLINE
5
166
100
AcDbEntity
8
0
100
AcDbPolyline
90
8
70
1
43
0.0
10
96.813798267197313
20
24.634873388477722
42
-0.41421356237310542
10
96.313798267197299
20
25.134873388477711
10
96.313798267197299
20
38.134273388477673
42
-0.41421356237300916
10
96.813798267197313
20
38.634273388477681
10
109.81309826719726
20
38.634273388477652
42
-0.41421356237310025
10
110.31309826719729
20
38.134273388477652
10
110.31309826719732
20
25.134873388477715
42
-0.41421356237314444
10
109.81309826719726
20
24.6348733884777
0
LWPOLYLINE
5
167
100
AcDbEntity
8
0
100
AcDbPolyline
90
8
70
1
43
0.0
10
200.30059826719707
20
95.784373388477476
42
-0.41421356237321988
10
200.80059826719705
20
95.284373388477434
10
200.80059826719705
20
82.285073388477542
42
-0.41421356237310542
10
200.30059826719707
20
81.785073388477542
10
187.30159826719705
20
81.785073388477585
42
-0.41421356237318868
10
186.80159826719705
20
82.285073388477542
10
186.80159826719711
20
95.284373388477462
42
-0.41421356237298057
10
187.30159826719705
20
95.784373388477476
0
LWPOLYLINE
5
168
100
AcDbEntity
8
0
100
AcDbPolyline
90
8
70
1
43
0.0
10
253.47659826719681
20
63.235073388477581
10
253.47659826719681
20
76.234373388477522
42
-0.4142135623732407
10
253.97659826719689
20
76.734373388477493
10
266.97559826719674
20
76.734373388477493
42
-0.41421356237308982
10
267.4755982671968
20
76.234373388477522
10
267.47559826719674
20
63.235073388477581
42
-0.41421356237297535
10
266.97559826719674
20
62.735073388477574
10
253.97659826719689
20
62.735073388477588
42
-0.41421356237316787
0
LWPOLYLINE
5
169
100
AcDbEntity
8
0
100
AcDbPolyline
90
8
70
1
43
0.0
10
252.9967604703441
20
6.0849133884777817
10
252.9967604703441
20
19.084373388477736
42
-0.4142135623731692
10
253.4967604703441
20
19.584373388477715
10
269.35659826719689
20
19.584373388477733
42
-0.4142135623730534
10
269.85659826719683
20
19.084373388477726
10
269.85659826719683
20
6.0849133884777773
42
-0.41421356237300982
10
269.35659826719689
20
5.5849133884777791
10
253.4967604703441
20
5.58491338847774
42
-0.41421356237319845
0
LWPOLYLINE
5
170
100
AcDbEntity
8
0
100
AcDbPolyline
90
8
70
1
43
0.0
10
148.70159826719714
20
82.285073388477542
10
148.70159826719714
20
95.284373388477462
42
-0.41421356237307422
10
149.20159826719714
20
95.784373388477476
10
162.20059826719708
20
95.784373388477476
42
-0.41421356237303258
10
162.70059826719714
20
95.284373388477462
10
162.70059826719711
20
82.285073388477542
42
-0.41421356237307422
10
162.20059826719702
20
81.785073388477542
10
149.20159826719714
20
81.785073388477542
42
-0.41421356237316787
0
LWPOLYLINE
5
171
100
AcDbEntity
8
0
100
AcDbPolyline
90
8
70
1
43
0.0
10
72.501298267197413
20
82.285073388477542
10
72.501298267197413
20
95.284373388477491
42
-0.41421356237298057
10
73.001298267197413
20
95.784373388477476
10
86.000598267197319
20
95.784373388477476
42
-0.4142135623730222
10
86.500598267197319
20
95.284373388477462
10
86.500598267197319
20
82.285073388477542
42
-0.4142135623730534
10
86.000598267197319
20
81.785073388477542
10
73.001298267197413
20
81.785073388477542
42
-0.41421356237312623
0
LWPOLYLINE
5
172
100
AcDbEntity
8
0
100
AcDbPolyline
90
19
70
1
43
0.0
10
264.00000393390656
20
21.000000312924389
10
264.00000393390656
20
24.6348733884777
10
279.38159826719669
20
24.6348733884777
10
280.20864078220598
20
24.6348733884777
10
280.20864078220598
20
21.000000312924389
10
288.00000429153437
20
21.000000312924389
10
288.00000429153437
20
24.6348733884777
10
295.55059826719673
20
24.634873388477708
42
0.41421356237304041
10
296.05059826719668
20
25.134873388477693
10
296.05059826719668
20
38.134273388477652
42
0.41421356237318346
10
295.55059826719679
20
38.63427338847761
10
282.05159826719671
20
38.634273388477652
10
279.38159826719669
20
38.634273388477652
10
256.35759826719675
20
38.634273388477666
42
0.41421356237310025
10
255.85759826719683
20
38.134273388477652
10
255.85759826719681
20
25.134873388477704
42
0.41421356237307422
10
256.35759826719675
20
24.6348733884777
10
256.57682058044003
20
24.6348733884777
10
256.57682058044003
20
21.000000312924389
0
LWPOLYLINE
5
173
100
AcDbEntity
8
0
100
AcDbPolyline
90
8
70
1
43
0.0
10
244.45159826719689
20
81.785073388477542
42
-0.41421356237310542
10
243.95159826719691
20
82.285073388477542
10
243.95159826719691
20
95.284373388477434
42
-0.41421356237313667
10
244.45159826719689
20
95.784373388477476
10
257.45059826719682
20
95.784373388477491
42
-0.41421356237312623
10
257.95059826719682
20
95.284373388477434
10
257.95059826719682
20
82.285073388477542
42
-0.41421356237298057
10
257.45059826719682
20
81.785073388477542
0
LWPOLYLINE
5
174
100
AcDbEntity
8
0
100
AcDbPolyline
90
8
70
1
43
0.0
10
106.33879826719732
20
57.68437338847761
10
119.33859826719728
20
57.684373388477603
42
-0.4142135623730846
10
119.8385982671973
20
57.18437338847761
10
119.8385982671973
20
44.185073388477647
42
-0.41421356237312101
10
119.33859826719728
20
43.685073388477669
10
106.33879826719732
20
43.685073388477697
42
-0.41421356237311585
10
105.8387982671973
20
44.185073388477669
10
105.8387982671973
20
57.18437338847761
42
-0.41421356237308982
0
LWPOLYLINE
5
175
100
AcDbEntity
8
0
100
AcDbPolyline
90
8
70
1
43
0.0
10
196.826598267197
20
76.73437338847755
10
209.82559826719694
20
76.734373388477493
42
-0.41421356237308982
10
210.32559826719699
20
76.234373388477522
10
210.32559826719702
20
63.235073388477581
42
-0.41421356237326673
10
209.82559826719694
20
62.735073388477574
10
196.826598267197
20
62.735073388477574
42
-0.41421356237305862
10
196.32659826719703
20
63.235073388477623
10
196.32659826719706
20
76.23437338847755
42
-0.4142135623730846
0
LWPOLYLINE
5
176
100
AcDbEntity
8
0
100
AcDbPolyline
90
8
70
1
43
0.0
10
91.551298267197311
20
95.284373388477462
42
-0.4142135623730534
10
92.051298267197325
20
95.784373388477476
10
105.0505982671973
20
95.784373388477476
42
-0.4142135623730222
10
105.55059826719729
20
95.284373388477462
10
105.55059826719729
20
82.285073388477542
42
-0.4142135623730534
10
105.0505982671973
20
81.785073388477542
10
92.051298267197325
20
81.785073388477542
42
-0.4142135623730846
10
91.551298267197311
20
82.285073388477542
0
LINE
5
177
100
AcDbEntity
8
0
100
AcDbLine
10
65.357598267197432
20
19.584373388477744
30
0
11
79.356898267197366
21
19.584373388477736
31
0
0
ENDSEC
0
SECTION
2
OBJECTS
0
DICTIONARY
5
C
100
AcDbDictionary
3
ACAD_GROUP
350
D
3
ACAD_MLINESTYLE
350
17
0
DICTIONARY
5
D
100
AcDbDictionary
0
DICTIONARY
5
1A
330
C
100
AcDbDictionary
0
DICTIONARY
5
17
100
AcDbDictionary
0
ENDSEC
0
EOF
