0
SECTION
2
HEADER
9
$INSUNITS
70
4
9
$ACADVER
1
AC1014
9
$HANDSEED
5
FFFF
0
ENDSEC
0
SECTION
2
TABLES
0
TABLE
2
VPORT
5
8
100
AcDbSymbolTable
0
ENDTAB
0
TABLE
2
LTYPE
5
5
100
AcDbSymbolTable
0
LTYPE
5
14
100
AcDbSymbolTableRecord
100
AcDbLinetypeTableRecord
2
BYBLOCK
70
0
0
LTYPE
5
15
100
AcDbSymbolTableRecord
100
AcDbLinetypeTableRecord
2
BYLAYER
70
0
0
ENDTAB
0
TABLE
2
LAYER
5
2
100
AcDbSymbolTable
70
2
0
LAYER
5
50
100
AcDbSymbolTableRecord
100
AcDbLayerTableRecord
2
0
70
0
6
CONTINUOUS
0
ENDTAB
0
TABLE
2
STYLE
5
3
100
AcDbSymbolTable
70
1
0
STYLE
5
11
100
AcDbSymbolTableRecord
100
AcDbTextStyleTableRecord
2
STANDARD
70
0
0
ENDTAB
0
TABLE
2
VIEW
5
6
100
AcDbSymbolTable
70
0
0
ENDTAB
0
TABLE
2
UCS
5
7
100
AcDbSymbolTable
70
0
0
ENDTAB
0
TABLE
2
APPID
5
9
100
AcDbSymbolTable
70
2
0
APPID
5
12
100
AcDbSymbolTableRecord
100
AcDbRegAppTableRecord
2
ACAD
70
0
0
ENDTAB
0
TABLE
2
DIMSTYLE
5
A
100
AcDbSymbolTable
70
1
0
ENDTAB
0
TABLE
2
BLOCK_RECORD
5
1
100
AcDbSymbolTable
70
1
0
BLOCK_RECORD
5
1F
100
AcDbSymbolTableRecord
100
AcDbBlockTableRecord
2
*MODEL_SPACE
0
BLOCK_RECORD
5
1B
100
AcDbSymbolTableRecord
100
AcDbBlockTableRecord
2
*PAPER_SPACE
0
ENDTAB
0
ENDSEC
0
SECTION
2
BLOCKS
0
BLOCK
5
20
100
AcDbEntity
100
AcDbBlockBegin
2
*MODEL_SPACE
0
ENDBLK
5
21
100
AcDbEntity
100
AcDbBlockEnd
0
BLOCK
5
1C
100
AcDbEntity
100
AcDbBlockBegin
2
*PAPER_SPACE
0
ENDBLK
5
1D
100
AcDbEntity
100
AcDbBlockEnd
0
ENDSEC
0
SECTION
2
ENTITIES
0
LWPOLYLINE
5
100
100
AcDbEntity
8
0
100
AcDbPolyline
90
48
70
1
43
0.0
10
603.00000000000011
20
-9.9999999999999627
42
0.41421356237308171
10
605.00000000000011
20
-8.0000000000000249
10
605.00000000000011
20
120.00000000000007
42
0.41421356237302737
10
603.00000000000011
20
122.00000000000009
10
336.7000000000001
20
122.00000000000001
10
336.7000000000001
20
101.304404606597
10
337.5
20
101.304404606597
10
389.5
20
101.304404606597
10
389.5
20
96.804404606596961
10
427.50000000000006
20
96.804404606596961
10
427.50000000000006
20
101.304404606597
10
479.5
20
101.30440460659696
10
479.5
20
96.804404606596961
10
517.5
20
96.804404606596961
10
517.5
20
101.304404606597
10
569.5
20
101.304404606597
10
569.5
20
96.804404606596961
10
597
20
96.804404606596961
10
597
20
64.304404606596975
10
601.49999722148846
20
64.304404606596975
10
601.50000183091424
20
32.304404606596968
10
597
20
32.304404606596968
10
597
20
-0.1955953934030408
10
569.5
20
-0.19559539340304188
10
569.5
20
-4.6955953934030408
10
517.5
20
-4.6955953934030443
10
517.5
20
-0.19559539340302468
10
479.5
20
-0.19559539340302967
10
479.5
20
-4.6955953934030497
10
427.50000000000006
20
-4.6955953934030497
10
427.50000000000006
20
-0.19559539340304968
10
389.5
20
-0.19559539340304133
10
389.5
20
-4.6955953934030328
10
337.50000000000006
20
-4.6955953934030408
10
337.50000000000006
20
-0.19559539340306187
10
310
20
-0.19559539340329868
10
310
20
0
10
310
20
32.304404606596968
10
305.5
20
32.304404606596968
10
305.5
20
64.304404606596975
10
310
20
64.304404606596975
10
310
20
96.804404606596961
10
321.7000000000001
20
96.804404606596961
10
321.7000000000001
20
122.00000000000001
10
304
20
122.00000000000001
42
0.41421356237310281
10
302
20
120.00000000000007
10
302
20
-8.0000000000000071
42
0.41421356237307422
10
304
20
-10
0
LWPOLYLINE
5
101
100
AcDbEntity
8
0
100
AcDbPolyline
90
18
70
1
43
0.0
10
258.00000000000006
20
140
10
29.000000000000021
20
140
10
0
20
140
10
0
20
237.00000000000003
10
11.700000000000037
20
237.00000000000003
10
11.700000000000037
20
262
10
-6.0000000000000142
20
262
42
0.41421356237308038
10
-8.0000000000000213
20
260.00000000000006
10
-8.0000000000000089
20
132
42
0.41421356237309276
10
-6.0000000000000142
20
130
10
293.00000000000006
20
130.00000000000003
42
0.41421356237307944
10
295.00000000000006
20
131.99999999999997
10
295.00000000000011
20
260.00000000000006
42
0.41421356237305862
10
293.00000000000006
20
262.00000000000006
10
26.700000000000017
20
262
10
26.700000000000017
20
237.00000000000003
10
287
20
237.00000000000003
10
287
20
140
0
CIRCLE
5
102
100
AcDbEntity
8
0
100
AcDbCircle
10
498.5
20
106.00000000000001
30
0
40
1.6000000000000014
210
0
220
0
230
1
0
CIRCLE
5
103
100
AcDbEntity
8
0
100
AcDbCircle
10
601.00000000000011
20
24.250000000000011
30
0
40
1.6000000000000036
210
0
220
0
230
1
0
CIRCLE
5
104
100
AcDbEntity
8
0
100
AcDbCircle
10
408.5
20
106.00000000000001
30
0
40
1.5999999999999961
210
0
220
0
230
1
0
CIRCLE
5
105
100
AcDbEntity
8
0
100
AcDbCircle
10
318.5
20
106.00000000000001
30
0
40
1.6000000000000014
210
0
220
0
230
1
0
CIRCLE
5
106
100
AcDbEntity
8
0
100
AcDbCircle
10
601.00000000000011
20
72.750000000000028
30
0
40
1.6000000000000061
210
0
220
0
230
1
0
CIRCLE
5
107
100
AcDbEntity
8
0
100
AcDbCircle
10
278.5
20
135
30
0
40
1.6000000000000107
210
0
220
0
230
1
0
CIRCLE
5
108
100
AcDbEntity
8
0
100
AcDbCircle
10
408.50000000000011
20
-5
30
0
40
1.5999999999999952
210
0
220
0
230
1
0
CIRCLE
5
109
100
AcDbEntity
8
0
100
AcDbCircle
10
588.5
20
106.00000000000001
30
0
40
1.6000000000000014
210
0
220
0
230
1
0
CIRCLE
5
110
100
AcDbEntity
8
0
100
AcDbCircle
10
498.5
20
-5
30
0
40
1.6000000000000103
210
0
220
0
230
1
0
CIRCLE
5
111
100
AcDbEntity
8
0
100
AcDbCircle
10
588.5
20
246
30
0
40
1.6000000000000014
210
0
220
0
230
1
0
CIRCLE
5
112
100
AcDbEntity
8
0
100
AcDbCircle
10
98.500000000000014
20
246
30
0
40
1.5999999999999961
210
0
220
0
230
1
0
LWPOLYLINE
5
113
100
AcDbEntity
8
0
100
AcDbPolyline
90
8
70
1
43
0.0
10
313.00000000000006
20
142
42
-0.41421356237309503
10
311.00000000000011
20
144
10
311.00000000000011
20
170
42
-0.4142135623730846
10
313.00000000000006
20
172
10
594
20
171.99999999999994
42
-0.41421356237311585
10
596.00000000000011
20
170
10
596.00000000000023
20
144
42
-0.41421356237311324
10
594
20
142
0
CIRCLE
5
114
100
AcDbEntity
8
0
100
AcDbCircle
10
318.50000000000011
20
193.5
30
0
40
1.6000000000000014
210
0
220
0
230
1
0
LWPOLYLINE
5
115
100
AcDbEntity
8
0
100
AcDbPolyline
90
8
70
1
43
0.0
10
596
20
233.00000000000011
10
596
20
207.00000000000003
42
-0.41421356237312101
10
594
20
205.00000000000003
10
313
20
205
42
-0.41421356237307944
10
311
20
207.00000000000003
10
311
20
233.00000000000011
42
-0.41421356237310025
10
313
20
235.00000000000003
10
594
20
235.00000000000006
42
-0.4142135623730534
0
CIRCLE
5
116
100
AcDbEntity
8
0
100
AcDbCircle
10
318.50000000000011
20
162
30
0
40
1
210
0
220
0
230
1
0
LWPOLYLINE
5
117
100
AcDbEntity
8
0
100
AcDbPolyline
90
18
70
1
43
0.0
10
336.7000000000001
20
262
10
336.7000000000001
20
237.00000000000003
10
597
20
237.00000000000003
10
597
20
140
10
568.00000000000011
20
140
10
339.00000000000006
20
140
10
310
20
140
10
310
20
237.00000000000003
10
321.7000000000001
20
237.00000000000003
10
321.7000000000001
20
262
10
304
20
262
42
0.41421356237311063
10
302
20
260.00000000000006
10
302
20
132
42
0.41421356237308721
10
304
20
130
10
603.00000000000011
20
130.00000000000003
42
0.4142135623730846
10
605.00000000000011
20
131.99999999999997
10
605.00000000000011
20
260.00000000000006
42
0.414213562373069
10
603.00000000000011
20
262.00000000000006
0
CIRCLE
5
118
100
AcDbEntity
8
0
100
AcDbCircle
10
305.99999999999989
20
72.75
30
0
40
1.6000000000000014
210
0
220
0
230
1
0
CIRCLE
5
119
100
AcDbEntity
8
0
100
AcDbCircle
10
305.99999999999989
20
212.75000000000003
30
0
40
1.6000000000000014
210
0
220
0
230
1
0
CIRCLE
5
120
100
AcDbEntity
8
0
100
AcDbCircle
10
-4.0000000000000817
20
212.75000000000003
30
0
40
1.6000000000000014
210
0
220
0
230
1
0
CIRCLE
5
121
100
AcDbEntity
8
0
100
AcDbCircle
10
188.5
20
135
30
0
40
1.6000000000000103
210
0
220
0
230
1
0
CIRCLE
5
122
100
AcDbEntity
8
0
100
AcDbCircle
10
188.5
20
246
30
0
40
1.6000000000000014
210
0
220
0
230
1
0
CIRCLE
5
123
100
AcDbEntity
8
0
100
AcDbCircle
10
305.99999999999994
20
24.250000000000011
30
0
40
1.6000000000000016
210
0
220
0
230
1
0
LWPOLYLINE
5
124
100
AcDbEntity
8
0
100
AcDbPolyline
90
8
70
1
43
0.0
10
313.00000000000006
20
173.49999999999997
10
594
20
173.50000000000011
42
0.4142135623730534
10
596.00000000000011
20
175.50000000000009
10
596.00000000000023
20
201.50000000000009
42
0.4142135623730846
10
594
20
203.5
10
313.00000000000006
20
203.5
42
0.41421356237311063
10
311.00000000000011
20
201.50000000000006
10
311.00000000000011
20
175.49999999999997
42
0.4142135623730846
0
CIRCLE
5
125
100
AcDbEntity
8
0
100
AcDbCircle
10
8.5000000000000142
20
135
30
0
40
1.6000000000000014
210
0
220
0
230
1
0
CIRCLE
5
126
100
AcDbEntity
8
0
100
AcDbCircle
10
588.5
20
-5
30
0
40
1.6000000000000107
210
0
220
0
230
1
0
CIRCLE
5
127
100
AcDbEntity
8
0
100
AcDbCircle
10
408.5
20
246
30
0
40
1.5999999999999961
210
0
220
0
230
1
0
CIRCLE
5
128
100
AcDbEntity
8
0
100
AcDbCircle
10
318.5
20
-5
30
0
40
1.6000000000000014
210
0
220
0
230
1
0
CIRCLE
5
129
100
AcDbEntity
8
0
100
AcDbCircle
10
-4.0000000000000409
20
24.250000000000011
30
0
40
1
210
0
220
0
230
1
0
CIRCLE
5
130
100
AcDbEntity
8
0
100
AcDbCircle
10
-4.0000000000000817
20
72.75
30
0
40
1
210
0
220
0
230
1
0
CIRCLE
5
131
100
AcDbEntity
8
0
100
AcDbCircle
10
408.50000000000011
20
225.00000000000003
30
0
40
1.6000000000000014
210
0
220
0
230
1
0
CIRCLE
5
132
100
AcDbEntity
8
0
100
AcDbCircle
10
278.5
20
246
30
0
40
1.6000000000000014
210
0
220
0
230
1
0
LINE
5
133
100
AcDbEntity
8
0
100
AcDbLine
10
293.00000000000006
20
262.00000000000006
30
0
11
42.916388209625538
21
262
31
0
0
CIRCLE
5
134
100
AcDbEntity
8
0
100
AcDbCircle
10
408.5
20
193.5
30
0
40
1.6000000000000014
210
0
220
0
230
1
0
CIRCLE
5
135
100
AcDbEntity
8
0
100
AcDbCircle
10
318.5
20
135
30
0
40
1.6000000000000014
210
0
220
0
230
1
0
CIRCLE
5
136
100
AcDbEntity
8
0
100
AcDbCircle
10
291.00000000000011
20
212.75000000000006
30
0
40
1.6000000000000061
210
0
220
0
230
1
0
CIRCLE
5
137
100
AcDbEntity
8
0
100
AcDbCircle
10
588.5
20
135
30
0
40
1.6000000000000107
210
0
220
0
230
1
0
CIRCLE
5
138
100
AcDbEntity
8
0
100
AcDbCircle
10
188.5
20
-5
30
0
40
1
210
0
220
0
230
1
0
CIRCLE
5
139
100
AcDbEntity
8
0
100
AcDbCircle
10
98.500000000000014
20
135
30
0
40
1.5999999999999952
210
0
220
0
230
1
0
CIRCLE
5
140
100
AcDbEntity
8
0
100
AcDbCircle
10
278.5
20
106.00000000000001
30
0
40
1.6000000000000014
210
0
220
0
230
1
0
CIRCLE
5
141
100
AcDbEntity
8
0
100
AcDbCircle
10
291.00000000000011
20
24.250000000000011
30
0
40
1
210
0
220
0
230
1
0
LWPOLYLINE
5
142
100
AcDbEntity
8
0
100
AcDbPolyline
90
8
70
1
43
0.0
10
-6.0000000000000142
20
122.00000000000001
10
293.00000000000006
20
122.00000000000004
42
-0.41421356237307161
10
295.00000000000006
20
120.00000000000007
10
295.00000000000006
20
-8.0000000000000249
42
-0.41421356237307194
10
293.00000000000006
20
-10.000000000000009
10
-6.0000000000000142
20
-9.9999999999999982
42
-0.4142135623730947
10
-8.0000000000000036
20
-8.0000000000000071
10
-8.0000000000000036
20
120.00000000000007
42
-0.41421356237309176
0
CIRCLE
5
143
100
AcDbEntity
8
0
100
AcDbCircle
10
188.5
20
106.00000000000001
30
0
40
1.6000000000000014
210
0
220
0
230
1
0
CIRCLE
5
144
100
AcDbEntity
8
0
100
AcDbCircle
10
291.00000000000011
20
164.25
30
0
40
1.6000000000000036
210
0
220
0
230
1
0
CIRCLE
5
145
100
AcDbEntity
8
0
100
AcDbCircle
10
8.5000000000000142
20
246
30
0
40
1.6000000000000014
210
0
220
0
230
1
0
CIRCLE
5
146
100
AcDbEntity
8
0
100
AcDbCircle
10
98.500000000000014
20
-5
30
0
40
1
210
0
220
0
230
1
0
CIRCLE
5
147
100
AcDbEntity
8
0
100
AcDbCircle
10
-4.0000000000000409
20
164.25
30
0
40
1.6000000000000016
210
0
220
0
230
1
0
CIRCLE
5
148
100
AcDbEntity
8
0
100
AcDbCircle
10
318.5
20
246
30
0
40
1.6000000000000014
210
0
220
0
230
1
0
LWPOLYLINE
5
149
100
AcDbEntity
8
0
100
AcDbPolyline
90
8
70
1
43
0.0
10
287
20
0
10
258.00000000000006
20
0
10
239.00000000000009
20
0
10
48.000000000000007
20
0
10
29.000000000000004
20
0
10
0
20
0
10
0
20
97.000000000000014
10
287
20
97.000000000000014
0
CIRCLE
5
150
100
AcDbEntity
8
0
100
AcDbCircle
10
305.99999999999994
20
164.25
30
0
40
1.6000000000000016
210
0
220
0
230
1
0
CIRCLE
5
151
100
AcDbEntity
8
0
100
AcDbCircle
10
498.50000000000011
20
162
30
0
40
1
210
0
220
0
230
1
0
CIRCLE
5
152
100
AcDbEntity
8
0
100
AcDbCircle
10
278.5
20
-5
30
0
40
1
210
0
220
0
230
1
0
CIRCLE
5
153
100
AcDbEntity
8
0
100
AcDbCircle
10
498.5
20
246
30
0
40
1.6000000000000014
210
0
220
0
230
1
0
CIRCLE
5
154
100
AcDbEntity
8
0
100
AcDbCircle
10
588.50000000000011
20
193.5
30
0
40
1.6000000000000045
210
0
220
0
230
1
0
CIRCLE
5
155
100
AcDbEntity
8
0
100
AcDbCircle
10
588.50000000000011
20
162
30
0
40
1
210
0
220
0
230
1
0
CIRCLE
5
156
100
AcDbEntity
8
0
100
AcDbCircle
10
98.500000000000014
20
106.00000000000001
30
0
40
1.5999999999999961
210
0
220
0
230
1
0
CIRCLE
5
157
100
AcDbEntity
8
0
100
AcDbCircle
10
408.50000000000011
20
162
30
0
40
1
210
0
220
0
230
1
0
CIRCLE
5
158
100
AcDbEntity
8
0
100
AcDbCircle
10
318.50000000000011
20
225.00000000000003
30
0
40
1.6000000000000014
210
0
220
0
230
1
0
CIRCLE
5
159
100
AcDbEntity
8
0
100
AcDbCircle
10
588.50000000000011
20
225.00000000000003
30
0
40
1.6000000000000045
210
0
220
0
230
1
0
CIRCLE
5
160
100
AcDbEntity
8
0
100
AcDbCircle
10
498.50000000000011
20
225.00000000000003
30
0
40
1.6000000000000036
210
0
220
0
230
1
0
CIRCLE
5
161
100
AcDbEntity
8
0
100
AcDbCircle
10
8.5000000000000142
20
106.00000000000001
30
0
40
1.6000000000000014
210
0
220
0
230
1
0
CIRCLE
5
162
100
AcDbEntity
8
0
100
AcDbCircle
10
498.5
20
135
30
0
40
1.6000000000000103
210
0
220
0
230
1
0
CIRCLE
5
163
100
AcDbEntity
8
0
100
AcDbCircle
10
8.5000000000000142
20
-5
30
0
40
1
210
0
220
0
230
1
0
CIRCLE
5
164
100
AcDbEntity
8
0
100
AcDbCircle
10
601.00000000000011
20
164.25
30
0
40
1.6000000000000036
210
0
220
0
230
1
0
CIRCLE
5
165
100
AcDbEntity
8
0
100
AcDbCircle
10
498.5
20
193.5
30
0
40
1.6000000000000036
210
0
220
0
230
1
0
CIRCLE
5
166
100
AcDbEntity
8
0
100
AcDbCircle
10
601.00000000000011
20
212.75000000000006
30
0
40
1.6000000000000061
210
0
220
0
230
1
0
LINE
5
167
100
AcDbEntity
8
0
100
AcDbLine
10
603.00000000000011
20
262.00000000000006
30
0
11
352.91638820962555
21
262
31
0
0
CIRCLE
5
168
100
AcDbEntity
8
0
100
AcDbCircle
10
291.00000000000011
20
72.750000000000028
30
0
40
1
210
0
220
0
230
1
0
CIRCLE
5
169
100
AcDbEntity
8
0
100
AcDbCircle
10
408.5
20
135
30
0
40
1.5999999999999952
210
0
220
0
230
1
0
ENDSEC
0
SECTION
2
OBJECTS
0
DICTIONARY
5
C
100
AcDbDictionary
3
ACAD_GROUP
350
D
3
ACAD_MLINESTYLE
350
17
0
DICTIONARY
5
D
100
AcDbDictionary
0
DICTIONARY
5
1A
330
C
100
AcDbDictionary
0
DICTIONARY
5
17
100
AcDbDictionary
0
ENDSEC
0
EOF
